<svg width="135" height="40" viewBox="0 0 135 40" fill="none" xmlns="http://www.w3.org/2000/svg">
  <path d="M20 0C8.954 0 0 8.954 0 20C0 31.046 8.954 40 20 40C31.046 40 40 31.046 40 20C40 8.954 31.046 0 20 0ZM20 7.5C26.904 7.5 32.5 13.096 32.5 20C32.5 26.904 26.904 32.5 20 32.5C13.096 32.5 7.5 26.904 7.5 20C7.5 13.096 13.096 7.5 20 7.5Z" fill="#F2F2F2"/>
  <path d="M48.76 28V11.2H61V14.92H53.08V18.04H60.44V21.76H53.08V28H48.76ZM69.0184 28.28C67.7984 28.28 66.7184 28.07 65.7784 27.65C64.8384 27.23 64.0784 26.67 63.4984 25.97C62.9384 25.27 62.5184 24.48 62.2384 23.6C61.9784 22.72 61.8484 21.8 61.8484 20.84V20.36C61.8484 19.4 61.9784 18.48 62.2384 17.6C62.5184 16.72 62.9384 15.93 63.4984 15.23C64.0784 14.53 64.8184 13.97 65.7184 13.55C66.6384 13.13 67.7184 12.92 68.9584 12.92C70.1584 12.92 71.1984 13.12 72.0784 13.52C72.9584 13.92 73.6784 14.48 74.2384 15.2C74.7984 15.9 75.2184 16.74 75.4984 17.72C75.7784 18.68 75.9184 19.73 75.9184 20.87V22.52H66.0784C66.1584 23.32 66.4384 24 66.9184 24.56C67.4184 25.1 68.1384 25.37 69.0784 25.37C69.8584 25.37 70.5184 25.23 71.0584 24.95C71.5984 24.67 72.0584 24.3 72.4384 23.84L75.1984 25.79C74.6784 26.51 73.9184 27.15 72.9184 27.71C71.9384 28.09 70.6584 28.28 69.0184 28.28ZM68.9584 15.83C68.2384 15.83 67.6584 16.08 67.2184 16.58C66.7784 17.08 66.4984 17.72 66.3784 18.5H71.6584C71.6384 17.72 71.3984 17.08 70.9384 16.58C70.4984 16.08 69.8384 15.83 68.9584 15.83ZM77.5334 28V13.2H81.4334V15.47C81.9134 14.71 82.5134 14.11 83.2334 13.67C83.9734 13.21 84.8134 12.98 85.7534 12.98C87.1934 12.98 88.3734 13.46 89.2934 14.42C90.2134 15.38 90.6734 16.78 90.6734 18.62V28H86.5334V19.49C86.5334 18.53 86.3134 17.81 85.8734 17.33C85.4534 16.85 84.8734 16.61 84.1334 16.61C83.4734 16.61 82.9134 16.84 82.4534 17.3C82.0134 17.76 81.6734 18.36 81.4334 19.1V28H77.5334ZM93.6144 28V13.2H97.5144V15.47C97.9944 14.71 98.5944 14.11 99.3144 13.67C100.054 13.21 100.894 12.98 101.834 12.98C103.274 12.98 104.454 13.46 105.374 14.42C106.294 15.38 106.754 16.78 106.754 18.62V28H102.614V19.49C102.614 18.53 102.394 17.81 101.954 17.33C101.534 16.85 100.954 16.61 100.214 16.61C99.5544 16.61 98.9944 16.84 98.5344 17.3C98.0944 17.76 97.7544 18.36 97.5144 19.1V28H93.6144ZM116.752 28.28C115.312 28.28 114.112 28.1 113.152 27.74C112.192 27.36 111.432 26.84 110.872 26.18C110.312 25.52 109.912 24.72 109.672 23.78C109.432 22.84 109.312 21.8 109.312 20.66V20.42C109.312 19.24 109.432 18.17 109.672 17.21C109.932 16.25 110.332 15.44 110.872 14.78C111.432 14.1 112.192 13.59 113.152 13.25C114.112 12.89 115.312 12.71 116.752 12.71C118.152 12.71 119.342 12.89 120.332 13.25C121.322 13.61 122.112 14.15 122.692 14.87C123.292 15.57 123.692 16.44 123.892 17.48C124.112 18.5 124.222 19.68 124.222 21.02V22.67H112.732C112.752 23.67 113.052 24.4 113.632 24.86C114.232 25.32 115.172 25.55 116.452 25.55C118.492 25.55 120.032 24.83 121.072 23.39L123.532 25.34C122.892 26.22 122.032 26.96 120.952 27.56C119.872 28.04 118.472 28.28 116.752 28.28ZM113.492 18.29H119.342C119.322 17.51 119.092 16.9 118.652 16.46C118.212 16 117.512 15.77 116.552 15.77C115.692 15.77 115.032 16 114.572 16.46C114.112 16.92 113.732 17.53 113.492 18.29ZM126.22 28V13.2H130.12V15.47C130.6 14.71 131.2 14.11 131.92 13.67C132.66 13.21 133.5 12.98 134.44 12.98V16.61H133.58C132.96 16.61 132.42 16.7 131.96 16.88C131.5 17.06 131.12 17.37 130.82 17.81C130.52 18.25 130.3 18.85 130.16 19.61C130.04 20.35 129.98 21.29 129.98 22.43V28H126.22Z" fill="#F2F2F2"/>
</svg>
